<svg id="Layer_1" data-name="Layer 1" xmlns="http://www.w3.org/2000/svg" viewBox="0 0 50 100"><defs><style>.cls-1{fill:#ed1e79;}</style></defs><title>Artboard 1socials</title><path d="M18.23,8.33A9.78,9.78,0,0,0,8.46,18.1V31.64a9.79,9.79,0,0,0,9.77,9.78H31.77a9.79,9.79,0,0,0,9.77-9.78V18.1a9.78,9.78,0,0,0-9.77-9.77Zm0,1.5H31.77A8.26,8.26,0,0,1,40,18.1V31.64a8.26,8.26,0,0,1-8.27,8.27H18.23A8.26,8.26,0,0,1,10,31.64V18.1A8.26,8.26,0,0,1,18.23,9.83ZM34,14.34a1.51,1.51,0,1,0,1.51,1.51A1.51,1.51,0,0,0,34,14.34ZM25,16.6a8.27,8.27,0,1,0,8.27,8.27A8.28,8.28,0,0,0,25,16.6Zm0,1.5a6.77,6.77,0,1,1-6.77,6.77A6.76,6.76,0,0,1,25,18.1Z"/><path class="cls-1" d="M31.77,54H18.23a9.78,9.78,0,0,0-9.77,9.77V77.28a9.79,9.79,0,0,0,9.77,9.78H31.77a9.79,9.79,0,0,0,9.77-9.78V63.74A9.78,9.78,0,0,0,31.77,54ZM25,78.31A8.27,8.27,0,1,1,33.27,70,8.28,8.28,0,0,1,25,78.31ZM34,63a1.51,1.51,0,0,1,0-3,1.51,1.51,0,1,1,0,3Z"/><circle class="cls-1" cx="25" cy="70.04" r="6.77"/></svg>