<svg id="Layer_1" data-name="Layer 1" xmlns="http://www.w3.org/2000/svg" xmlns:xlink="http://www.w3.org/1999/xlink" viewBox="0 0 50 100"><defs><style>.cls-1{fill:url(#linear-gradient);}.cls-2{fill:url(#linear-gradient-2);}</style><linearGradient id="linear-gradient" x1="19.34" y1="87.92" x2="30.66" y2="53.1" gradientUnits="userSpaceOnUse"><stop offset="0" stop-color="#e59e03"/><stop offset="0.3" stop-color="#ed1c24"/><stop offset="0.64" stop-color="#93278f"/><stop offset="0.85" stop-color="#662d91"/></linearGradient><linearGradient id="linear-gradient-2" x1="23.71" y1="76.69" x2="26.29" y2="63.39" gradientUnits="userSpaceOnUse"><stop offset="0" stop-color="#ff7300"/><stop offset="0.06" stop-color="#fd6a04"/><stop offset="0.15" stop-color="#f8500e"/><stop offset="0.27" stop-color="#ef271f"/><stop offset="0.3" stop-color="#ed1c24"/><stop offset="0.66" stop-color="#93278f"/><stop offset="0.87" stop-color="#662d91"/></linearGradient></defs><title>Artboard 1socials</title><path d="M18.23,8.33A9.78,9.78,0,0,0,8.46,18.1V31.64a9.79,9.79,0,0,0,9.77,9.78H31.77a9.79,9.79,0,0,0,9.77-9.78V18.1a9.78,9.78,0,0,0-9.77-9.77Zm0,1.5H31.77A8.26,8.26,0,0,1,40,18.1V31.64a8.26,8.26,0,0,1-8.27,8.27H18.23A8.26,8.26,0,0,1,10,31.64V18.1A8.26,8.26,0,0,1,18.23,9.83ZM34,14.34a1.51,1.51,0,1,0,1.51,1.51A1.51,1.51,0,0,0,34,14.34ZM25,16.6a8.27,8.27,0,1,0,8.27,8.27A8.28,8.28,0,0,0,25,16.6Zm0,1.5a6.77,6.77,0,1,1-6.77,6.77A6.76,6.76,0,0,1,25,18.1Z"/><path class="cls-1" d="M31.77,54H18.23a9.78,9.78,0,0,0-9.77,9.77V77.28a9.79,9.79,0,0,0,9.77,9.78H31.77a9.79,9.79,0,0,0,9.77-9.78V63.74A9.78,9.78,0,0,0,31.77,54ZM25,78.31A8.27,8.27,0,1,1,33.27,70,8.28,8.28,0,0,1,25,78.31ZM34,63a1.51,1.51,0,0,1,0-3,1.51,1.51,0,1,1,0,3Z"/><circle class="cls-2" cx="25" cy="70.04" r="6.77"/></svg>