<svg viewBox="0 0 50 100" xmlns="http://www.w3.org/2000/svg" xmlns:xlink="http://www.w3.org/1999/xlink"><linearGradient id="a" gradientUnits="userSpaceOnUse" x1="19.34" x2="30.66" y1="87.92" y2="53.1"><stop offset="0" stop-color="#e59e03"/><stop offset=".3" stop-color="#ed1c24"/><stop offset=".64" stop-color="#93278f"/><stop offset=".85" stop-color="#662d91"/></linearGradient><linearGradient id="b" gradientUnits="userSpaceOnUse" x1="23.71" x2="26.29" y1="76.69" y2="63.39"><stop offset="0" stop-color="#ff7300"/><stop offset=".06" stop-color="#fd6a04"/><stop offset=".15" stop-color="#f8500e"/><stop offset=".27" stop-color="#ef271f"/><stop offset=".3" stop-color="#ed1c24"/><stop offset=".66" stop-color="#93278f"/><stop offset=".87" stop-color="#662d91"/></linearGradient><path d="m18.23 8.33a9.78 9.78 0 0 0 -9.77 9.77v13.54a9.79 9.79 0 0 0 9.77 9.78h13.54a9.79 9.79 0 0 0 9.77-9.78v-13.54a9.78 9.78 0 0 0 -9.77-9.77zm0 1.5h13.54a8.26 8.26 0 0 1 8.23 8.27v13.54a8.26 8.26 0 0 1 -8.27 8.27h-13.5a8.26 8.26 0 0 1 -8.23-8.27v-13.54a8.26 8.26 0 0 1 8.23-8.27zm15.77 4.51a1.51 1.51 0 1 0 1.51 1.51 1.51 1.51 0 0 0 -1.51-1.51zm-9 2.26a8.27 8.27 0 1 0 8.27 8.27 8.28 8.28 0 0 0 -8.27-8.27zm0 1.5a6.77 6.77 0 1 1 -6.77 6.77 6.76 6.76 0 0 1 6.77-6.77z"/><path d="m31.77 54h-13.54a9.78 9.78 0 0 0 -9.77 9.77v13.51a9.79 9.79 0 0 0 9.77 9.78h13.54a9.79 9.79 0 0 0 9.77-9.78v-13.54a9.78 9.78 0 0 0 -9.77-9.74zm-6.77 24.31a8.27 8.27 0 1 1 8.27-8.31 8.28 8.28 0 0 1 -8.27 8.31zm9-15.31a1.51 1.51 0 0 1 0-3 1.51 1.51 0 1 1 0 3z" fill="url(#a)"/><circle cx="25" cy="70.04" fill="url(#b)" r="6.77"/></svg>