<svg id="Layer_1" data-name="Layer 1" xmlns="http://www.w3.org/2000/svg" viewBox="0 0 50 100"><defs><style>.cls-1{fill:none;stroke:#000;stroke-miterlimit:10;}.cls-2{fill:#fefefe;}.cls-3{fill:#f89228;}.cls-4{fill:#f57539;}.cls-5{fill:#f5713b;}.cls-6{fill:#f46543;}.cls-7{fill:#f45f47;}.cls-8{fill:#f78530;}.cls-9{fill:#f13f59;}.cls-10{fill:#ef2767;}.cls-11{fill:#f03460;}.cls-12{fill:#f24655;}.cls-13{fill:#f56f3d;}.cls-14{fill:#f78232;}.cls-15{fill:#f24854;}.cls-16{fill:#f02e63;}.cls-17{fill:#f03261;}.cls-18{fill:#f3534e;}.cls-19{fill:#f68033;}.cls-20{fill:#f24e51;}.cls-21{fill:#fefbfa;}.cls-22{fill:#fefdfc;}.cls-23{fill:#fdf5f3;}.cls-24{fill:#fefdfd;}.cls-25{fill:#fefcfc;}.cls-26{fill:#fdf2f5;}.cls-27{fill:#fef9fa;}.cls-28{fill:#fefafa;}</style></defs><title>Artboard 1 copy 3odysee</title><path class="cls-1" d="M33.18,38.83c-.74.47.09.28-.68.69a15.88,15.88,0,0,1-6.18,1.84l-.19.06H23.18a1.06,1.06,0,0,0-.19-.06,16.69,16.69,0,0,1-10.37-4.93,16,16,0,0,1-3.18-4.55c-.2-.45-.35-.92-.53-1.38l.18.08a1.7,1.7,0,0,0,1.5.22,5.62,5.62,0,0,0,2.09-1.21,18,18,0,0,1,2.23-1.84,19.22,19.22,0,0,1,3.52-1.67c.19-.07.37-.11.49.11.91,1.57,1.84,3.13,2.7,4.72a2.65,2.65,0,0,1,.32,1.42,2.44,2.44,0,0,1-2.35,2,10,10,0,0,0-1.73.15,2.17,2.17,0,0,0-1.78,1.34,3.23,3.23,0,0,0,1.16,3.45,4.76,4.76,0,0,0,3.26.57,10.36,10.36,0,0,0,3.26-1,5.18,5.18,0,0,0,2.35-1.7,6.73,6.73,0,0,0,1-2.77,13.62,13.62,0,0,0,.14-3.55c0-.32.12-.45.42-.45a2.7,2.7,0,0,1,2.18,1A6.38,6.38,0,0,1,31.17,35a15.12,15.12,0,0,0,.29,2,1.5,1.5,0,0,0,1.21,1.15C33.36,38.39,32.51,39.07,33.18,38.83Z"/><path class="cls-1" d="M7.9,23.43c.13-.74.23-1.48.39-2.21a16,16,0,0,1,3.46-6.93A16.57,16.57,0,0,1,17.35,10,16.25,16.25,0,0,1,23,8.4a16.83,16.83,0,0,1,9.7,1.93c.4.22.77.49,1.15.73a2.22,2.22,0,0,0-.46.24,2.71,2.71,0,0,0-.84,1.4c-.28,1-.5,1.92-.78,2.87-.41,1.4-1.17,2.24-2.75,2.12-.29,0-.47-.13-.54-.4s-.13-.54-.2-.8c-.45-1.5-.83-3-1.37-4.49a3.69,3.69,0,0,0-4.35-2.46,10.53,10.53,0,0,0-3.92,1.55,4.38,4.38,0,0,0-2.15,3.27,8.07,8.07,0,0,0,.12,3c.27,1.13.58,2.24.89,3.36a.42.42,0,0,1-.26.6,8.68,8.68,0,0,1-.84.34,18.74,18.74,0,0,0-5.76,3c-.73.58-1.43,1.2-2.13,1.81a1,1,0,0,0-.35,1.06,7.53,7.53,0,0,1,.16.95A2.79,2.79,0,0,1,8.17,28c-.1-.55-.18-1.1-.27-1.65Z"/><path class="cls-1" d="M8.91,30.5l-.6-2a7.53,7.53,0,0,0-.16-.95,1,1,0,0,1,.35-1.06c.7-.61,1.4-1.23,2.13-1.81a18.74,18.74,0,0,1,5.76-3,8.68,8.68,0,0,0,.84-.34.42.42,0,0,0,.26-.6c-.31-1.12-.62-2.23-.89-3.36a8.07,8.07,0,0,1-.12-3,4.38,4.38,0,0,1,2.15-3.27,10.53,10.53,0,0,1,3.92-1.55A3.69,3.69,0,0,1,26.9,12c.54,1.46.92,3,1.37,4.49.07.26.13.53.2.8s.25.37.54.4c1.58.12,2.34-.72,2.75-2.12.28-1,.5-1.92.78-2.87a2.71,2.71,0,0,1,.84-1.4,2.22,2.22,0,0,1,.46-.24c.65.5,1.32,1,2,1.5.4.32.74.72,1.11,1.08l-.06.66a8.39,8.39,0,0,1-1.6,4.52A36,36,0,0,1,31.39,23a1.08,1.08,0,0,0,.11,1.88,14.57,14.57,0,0,1,2.62,2.4,4.46,4.46,0,0,1,1.12,2.39,6.56,6.56,0,0,0,.22,1.07,16.21,16.21,0,0,0,1.87,4.08.92.92,0,0,1,.13.75,14.9,14.9,0,0,1-2.75,2.57,3.39,3.39,0,0,1-2,.1,1.5,1.5,0,0,1-1.21-1.15,15.12,15.12,0,0,1-.29-2,6.38,6.38,0,0,0-1.3-3.62,2.7,2.7,0,0,0-2.18-1c-.3,0-.46.13-.42.45a13.62,13.62,0,0,1-.14,3.55,6.73,6.73,0,0,1-1,2.77,5.18,5.18,0,0,1-2.35,1.7,10.36,10.36,0,0,1-3.26,1,4.76,4.76,0,0,1-3.26-.57,3.23,3.23,0,0,1-1.16-3.45,2.17,2.17,0,0,1,1.78-1.34,10,10,0,0,1,1.73-.15,2.44,2.44,0,0,0,2.35-2,2.65,2.65,0,0,0-.32-1.42c-.86-1.59-1.79-3.15-2.7-4.72-.12-.22-.3-.18-.49-.11a19.22,19.22,0,0,0-3.52,1.67,18,18,0,0,0-2.23,1.84,5.62,5.62,0,0,1-2.09,1.21,1.7,1.7,0,0,1-1.5-.22Z"/><path class="cls-1" d="M37.46,35.54a.92.92,0,0,0-.13-.75,16.21,16.21,0,0,1-1.87-4.08,6.56,6.56,0,0,1-.22-1.07,4.46,4.46,0,0,0-1.12-2.39,14.57,14.57,0,0,0-2.62-2.4A1.08,1.08,0,0,1,31.39,23a36,36,0,0,0,3.86-4.15,8.39,8.39,0,0,0,1.6-4.52l.06-.66c.51.6,1.07,1.16,1.52,1.79a15.79,15.79,0,0,1,2.93,7.85,16.2,16.2,0,0,1-3.68,12A2.18,2.18,0,0,1,37.46,35.54Z"/><path class="cls-1" d="M23.36,11.88a2,2,0,0,1,1.8,1.1,6.8,6.8,0,0,1,1,3,1.6,1.6,0,0,1-.74,1.52,7,7,0,0,1-3.64,1.33,2.09,2.09,0,0,1-2.06-1.32,4.78,4.78,0,0,1-.41-2.61A3.09,3.09,0,0,1,21,12.45,4.74,4.74,0,0,1,23.36,11.88Z"/><path class="cls-2" d="M23.66,87.66h-16c-.23,0-.28,0-.28-.27q0-16.47,0-32.94c0-.23.05-.28.28-.28H41.84c.22,0,.27,0,.27.28q0,7.6,0,15.23c-.26-.11-.09-.37-.2-.54a17.35,17.35,0,0,0-.33-2,20.72,20.72,0,0,0-1.46-3.74,16.32,16.32,0,0,0-2.57-3.56A8.67,8.67,0,0,1,35.75,65a18.37,18.37,0,0,1-1.39,1.65c-.86.88-1.72,1.77-2.64,2.58a1,1,0,0,0-.36.89,1.18,1.18,0,0,0,.62.82,14.65,14.65,0,0,1,2.09,1.76,5.71,5.71,0,0,1,1.64,2.57c.08.23,0,.47.11.69A17.7,17.7,0,0,0,37.41,80c.24.46.59.84.81,1.32.07,0,.11-.11.16-.18a16.29,16.29,0,0,0,2.92-5.54,18.16,18.16,0,0,0,.55-2.29,4.89,4.89,0,0,0,0-.54,2.5,2.5,0,0,1,.07-.54c0-.09,0-.21.15-.21q0,7.68,0,15.37c0,.23,0,.27-.27.27h-16c0-.19.19-.14.31-.15a17.53,17.53,0,0,0,5.1-1.13,18.27,18.27,0,0,0,3.2-1.65,1.08,1.08,0,0,1,.26-.14s0-.06,0,0l0,0a2.8,2.8,0,0,1-2.33-.39,1.74,1.74,0,0,1-.71-1,4.62,4.62,0,0,1-.22-1.48,6.56,6.56,0,0,0-.86-3.39,2.82,2.82,0,0,0-2-1.56c-.21,0-.42,0-.63,0s-.3.08-.29.32a16.59,16.59,0,0,1-.17,3.79,6.42,6.42,0,0,1-1.29,2.92,4.08,4.08,0,0,1-1.43,1.07,11.55,11.55,0,0,1-5.32,1.45,1.33,1.33,0,0,1-.4,0,7,7,0,0,1-1.35-.33,3.09,3.09,0,0,1-2-2.81,2.62,2.62,0,0,1,.15-1.27,2.34,2.34,0,0,1,1.52-1.21,6.28,6.28,0,0,1,2.24-.24.74.74,0,0,0,.26,0,3.45,3.45,0,0,0,1.45-.8,1.77,1.77,0,0,0,.48-1.81,4.23,4.23,0,0,0-.68-1.44c-.31-.42-.49-.92-.78-1.35a6,6,0,0,1-.43-.79c-.32-.62-.79-1.13-1.12-1.74a.31.31,0,0,0-.44-.15A16,16,0,0,0,14,74.45a17.22,17.22,0,0,0-1.37,1.17,5.55,5.55,0,0,1-2.58,1.46,1.71,1.71,0,0,1-1.43-.24,14.92,14.92,0,0,0,1.11,2.35,22.32,22.32,0,0,0,1.9,2.61c.37.44.83.8,1.23,1.22a17.54,17.54,0,0,0,3.3,2.36,15.55,15.55,0,0,0,2.46,1.11,17.74,17.74,0,0,0,4.66,1C23.44,87.52,23.62,87.46,23.66,87.66Z"/><path class="cls-3" d="M23.66,87.66c-.52-.06-1.05-.12-1.57-.2a16,16,0,0,1-3.52-.91c0-.32.2-.36.44-.36a11.48,11.48,0,0,0,5.77-1.5,5.34,5.34,0,0,0,1.3-1c.75-.28,1.5-.57,2.23-.9.24,0,.48,0,.63-.22.73-.34,1.48-.59,2.22-.91a.27.27,0,0,1,.31,0c0,.36.07.72.13,1.08a2,2,0,0,0,2.15,1.78,4.32,4.32,0,0,0,1.13-.1,6.6,6.6,0,0,1-.93.63,15.9,15.9,0,0,1-3.05,1.48,17.28,17.28,0,0,1-4.81,1,.42.42,0,0,0-.29,0Z"/><path class="cls-4" d="M35.64,75.24A5.65,5.65,0,0,0,34,72.72c0-.17.1-.21.2-.25L38,71c1-.39,1.95-.76,2.91-1.17a3.47,3.47,0,0,1,.5-.2.89.89,0,0,0,.62-.45c.12.17,0,.4.12.56V72a3.61,3.61,0,0,0-.13.8c-.5.26-1,.43-1.57.65l-4.23,1.71C36,75.26,35.83,75.38,35.64,75.24Z"/><path class="cls-5" d="M20.38,74.92a1.05,1.05,0,0,1,.23.36c.34.58.68,1.16,1,1.75a2.41,2.41,0,0,1,.32,1.41,1.71,1.71,0,0,1-.76,1.37,5.35,5.35,0,0,1-.76.47,2,2,0,0,1-1,.2,6.31,6.31,0,0,0-2,.22,2.39,2.39,0,0,0-1.52,1.15,22.39,22.39,0,0,1-2.21.92,2,2,0,0,1-.87.28,15.54,15.54,0,0,1-3.13-3.81.36.36,0,0,1,.18-.14c1.39-.52,2.77-1.1,4.15-1.66,1.63-.66,3.28-1.3,4.91-2A14.48,14.48,0,0,1,20.38,74.92Z"/><path class="cls-6" d="M32,71a1.43,1.43,0,0,1-.48-.4,1,1,0,0,1,.13-1.35c.95-.81,1.77-1.74,2.65-2.61.52-.51,1-1.1,1.44-1.66a2,2,0,0,0,.67-.19c1.14-.48,2.3-.94,3.46-1.39.12,0,.23-.1.35,0a17.92,17.92,0,0,1,1.46,3.74c-.58.29-1.18.53-1.77.76l-3.53,1.42c-1.36.54-2.7,1.1-4.06,1.63A.51.51,0,0,1,32,71Z"/><path class="cls-7" d="M20.38,74.92a2.63,2.63,0,0,1-.86.41c-1.45.59-2.91,1.19-4.38,1.76-1.81.71-3.59,1.51-5.43,2.15a15.34,15.34,0,0,1-1.24-2.61,2.11,2.11,0,0,0,2.43.09,7.76,7.76,0,0,0,2-1.44,13.29,13.29,0,0,1,4.7-2.82l.82-.29c.14,0,.23-.06.33.1A26.33,26.33,0,0,1,20.38,74.92Z"/><path class="cls-8" d="M35.64,75.24a3.71,3.71,0,0,0,1.12-.38c1.26-.49,2.5-1,3.76-1.51.36-.15.74-.29,1.1-.45a.73.73,0,0,1,.35-.07,11,11,0,0,1-.68,3.1,14.85,14.85,0,0,1-1.47,3.31,17,17,0,0,1-1.74,2.41.66.66,0,0,0-.15-.68,15,15,0,0,1-1.78-3.62A7.75,7.75,0,0,1,35.64,75.24Z"/><path class="cls-9" d="M25.8,58.26a2.48,2.48,0,0,1,.45.81,16.5,16.5,0,0,1,.64,1.83,1.66,1.66,0,0,1-.71,1.86,7.4,7.4,0,0,1-3.85,1.43,2.44,2.44,0,0,1-2.6-2.26,3.85,3.85,0,0,1-.09-1.62c.19.38.19.38.64.2,1.2-.47,2.39-1,3.59-1.43a1.69,1.69,0,0,0,.49-.28c.15,0,.19.08.26.16s.23.33.46.22.14-.31.1-.49a.11.11,0,0,1,0-.1C25.39,58.48,25.59,58.36,25.8,58.26Z"/><path class="cls-10" d="M10.55,61.45a13.43,13.43,0,0,1,2.65-2.93,16.18,16.18,0,0,1,4.09-2.64,16.5,16.5,0,0,1,6.09-1.55,9.52,9.52,0,0,1,1.69-.06c.27.06.55,0,.82,0h.38c0,.22-.18.26-.32.33-.39.18-.79.34-1.19.48a3,3,0,0,0-.57.27,8.06,8.06,0,0,0-4.44.91,9.67,9.67,0,0,0-2.22,1.4,3.29,3.29,0,0,0-.75,1c-.1.2-.19.4-.28.6-.51.27-1.07.43-1.6.66-1.26.53-2.53,1-3.8,1.53C10.93,61.59,10.7,61.76,10.55,61.45Z"/><path class="cls-11" d="M10.55,61.45c.18.19.36.06.52,0,.88-.34,1.74-.7,2.61-1.06l2.4-1a.86.86,0,0,1,.42-.09,8,8,0,0,0-.24,3.34,12.46,12.46,0,0,1-1.27.51c-2.07.85-4.16,1.68-6.24,2.53-.15.06-.31.15-.47,0A26.77,26.77,0,0,1,9.44,63.1,9.17,9.17,0,0,1,10.55,61.45Z"/><path class="cls-12" d="M7.49,69.87a4.78,4.78,0,0,1,.12-1.25c.73-.38,1.51-.65,2.27-1,1.62-.67,3.26-1.3,4.89-2,.64-.26,1.29-.53,1.95-.76.21.68.4,1.36.62,2,.07.21-.08.25-.19.32a9.28,9.28,0,0,1-1.77.69c-.59.19-1.14.49-1.74.64a1.05,1.05,0,0,0-.47.16c-1.18.64-2.46,1-3.68,1.55-.51.23-1,.44-1.55.62-.16.06-.33.15-.5,0v-.34C7.5,70.38,7.42,70.12,7.49,69.87Z"/><path class="cls-9" d="M16.72,64.93a3.58,3.58,0,0,1-1.1.52c-1.12.47-2.25.91-3.37,1.36L7.84,68.58a1.57,1.57,0,0,1-.23,0,12.31,12.31,0,0,1,.67-2.88,17.66,17.66,0,0,0,2.2-.82c1.17-.44,2.32-.93,3.48-1.4l1.84-.75a1.06,1.06,0,0,1,.46-.1Z"/><path class="cls-13" d="M32,71c.62-.27,1.24-.54,1.86-.79,1.89-.76,3.78-1.54,5.68-2.27a13.5,13.5,0,0,1,2.14-.82,9.67,9.67,0,0,1,.35,2c0,.27-.13.38-.34.46L38.09,71,34.2,72.56a.28.28,0,0,0-.19.16A18.22,18.22,0,0,0,32,71Z"/><path class="cls-14" d="M31.47,81.72c-.62.16-1.2.45-1.8.67a6.18,6.18,0,0,1-.72.26c-.37-.25-.4-.24-.6.18-.07.19-.27.19-.41.25a6.43,6.43,0,0,1-1.86.65,7.84,7.84,0,0,0,1.45-4.65,13.47,13.47,0,0,0,0-2.2c0-.17,0-.23.2-.25a2.78,2.78,0,0,1,2.5,1.05A6.33,6.33,0,0,1,31.47,81.72Z"/><path class="cls-9" d="M28.08,60.74c-.22-.69-.44-1.38-.65-2.08-.13-.41-.31-.8-.48-1.2a.72.72,0,0,1,.39-.24l3.72-1.5a1.66,1.66,0,0,0,.35-.18,13.42,13.42,0,0,1,2.69,1.38A3.58,3.58,0,0,0,32.75,59c-.57.26-1.15.47-1.72.71l-2.38.95C28.47,60.73,28.29,60.87,28.08,60.74Z"/><path class="cls-15" d="M28.08,60.74a11.18,11.18,0,0,0,1.78-.66l2.44-1a.87.87,0,0,1,.45-.1,21.24,21.24,0,0,1-.9,3.07,2.3,2.3,0,0,1-2.64,1.6c-.29,0-.39-.21-.47-.44-.27-.73-.4-1.49-.6-2.24Z"/><path class="cls-16" d="M31.41,55.54c-.09.31-.4.29-.62.38-1.27.53-2.56,1-3.84,1.54a4.16,4.16,0,0,0-2.76-2.05c0-.2.21-.22.34-.27.47-.2.95-.38,1.43-.57a.56.56,0,0,0,.31-.24,15.1,15.1,0,0,1,3.12.54C30.08,55.06,30.75,55.3,31.41,55.54Z"/><path class="cls-17" d="M25.8,58.26a.77.77,0,0,1-.61.34c-.13,0-.17-.11-.26-.17s-.23-.14-.37-.08-.15.2-.15.33,0,.09,0,.13c0,.2-.2.23-.34.28L20,60.76c-.19.07-.3.06-.3-.18a1.22,1.22,0,0,0,0-.27,2.92,2.92,0,0,1,1.65-2.42,5.65,5.65,0,0,1,2-.64A2.27,2.27,0,0,1,25.8,58.26Z"/><path class="cls-18" d="M40.17,63.34c-1,.34-2,.79-3,1.18-.36.13-.71.29-1.07.44-.13.05-.27.12-.39,0a5.44,5.44,0,0,0,.93-1.51,10.57,10.57,0,0,0,.82-3.82A15.16,15.16,0,0,1,40.17,63.34Z"/><path class="cls-19" d="M12.84,83.05l2.82-1.14a1.1,1.1,0,0,1,.26-.06,3.43,3.43,0,0,0,1,3.59,4,4,0,0,0,1.82.69l.29.06c-.17.1-.37.14-.44.36a15,15,0,0,1-1.86-.79,19.07,19.07,0,0,1-3.57-2.4A2.94,2.94,0,0,1,12.84,83.05Z"/><path class="cls-20" d="M7.44,71a4.35,4.35,0,0,0,1.44-.47c1.22-.47,2.4-1,3.65-1.43.29-.1.53-.35.84-.44.1,0,.18-.11.27,0a26.2,26.2,0,0,0-3.55,2.15,15.7,15.7,0,0,0-1.26,1,5.43,5.43,0,0,0-1.26,1.27A11.06,11.06,0,0,1,7.44,71Z"/><path class="cls-16" d="M25.89,54.32a2.5,2.5,0,0,1-.82,0A2.27,2.27,0,0,1,25.89,54.32Z"/><path class="cls-20" d="M7.49,69.87a2.1,2.1,0,0,1,0,.75A1.91,1.91,0,0,1,7.49,69.87Z"/><path class="cls-21" d="M28.35,82.83c0-.18,0-.37.18-.43a.32.32,0,0,1,.42.25C28.81,83,28.69,83,28.35,82.83Z"/><path class="cls-22" d="M35.91,66.93a1.08,1.08,0,0,0,.9-1.14,1.12,1.12,0,0,0,1.22.85c-.56.18-1,.47-.93,1.14A1.15,1.15,0,0,0,35.91,66.93Z"/><path class="cls-23" d="M14.77,76.92c0,.15-.11.24-.25.24a.22.22,0,0,1-.22-.25.21.21,0,0,1,.24-.21C14.69,76.7,14.74,76.81,14.77,76.92Z"/><path class="cls-24" d="M26.15,61.27a1.54,1.54,0,0,1-.06.52.33.33,0,0,1-.43.22.3.3,0,0,1-.24-.38,1.59,1.59,0,0,0-.09-.94.33.33,0,0,1,.21-.46.33.33,0,0,1,.45.22A1.91,1.91,0,0,1,26.15,61.27Z"/><path class="cls-25" d="M24.4,58.81c-.09-.2-.14-.41.1-.54a.47.47,0,0,1,.58.18l.11.15a2.12,2.12,0,0,1,.11.21.33.33,0,0,1-.15.46.37.37,0,0,1-.48-.09C24.57,59.07,24.54,58.9,24.4,58.81Z"/><path class="cls-26" d="M14.08,61.29c-.1,0-.16,0-.17-.13a.13.13,0,0,1,.14-.17.14.14,0,0,1,.17.15A.15.15,0,0,1,14.08,61.29Z"/><path class="cls-27" d="M11.44,66.78a.28.28,0,0,1-.32.3c-.2,0-.26-.15-.27-.3a.28.28,0,0,1,.32-.3A.27.27,0,0,1,11.44,66.78Z"/><path class="cls-21" d="M34.63,70.66c0,.28-.14.41-.39.42a.33.33,0,0,1-.35-.35c0-.25.13-.36.37-.37S34.62,70.45,34.63,70.66Z"/><path class="cls-28" d="M29.77,58.45c.18,0,.29.09.3.27a.28.28,0,0,1-.29.33.26.26,0,0,1-.3-.28A.28.28,0,0,1,29.77,58.45Z"/></svg>