<svg viewBox="0 0 50 100" xmlns="http://www.w3.org/2000/svg"><path d="m32.83 8.67a8.37 8.37 0 0 0 -8.18 8.54 8 8 0 0 0 .09.84 20.1 20.1 0 0 1 -13.87-7.66.72.72 0 0 0 -.65-.3.76.76 0 0 0 -.6.4 8.79 8.79 0 0 0 -1.1 4.28 8.69 8.69 0 0 0 1.65 5.05c-.2-.09-.41-.14-.59-.24a.73.73 0 0 0 -.74 0 .81.81 0 0 0 -.37.68v.09a8.6 8.6 0 0 0 3.56 7s0 0-.07 0a.76.76 0 0 0 -.7.26.81.81 0 0 0 -.15.75 8.33 8.33 0 0 0 5.66 5.59 13.62 13.62 0 0 1 -7.24 2.05 15 15 0 0 1 -1.67-.1.75.75 0 0 0 -.82.51.81.81 0 0 0 .32.94 21.11 21.11 0 0 0 11.79 3.65 20.8 20.8 0 0 0 16.27-7.46 24.31 24.31 0 0 0 5.64-15.42c0-.22 0-.44 0-.66a16.16 16.16 0 0 0 3.59-3.92.81.81 0 0 0 0-.95.72.72 0 0 0 -.89-.2c-.39.18-.85.2-1.25.34a8.7 8.7 0 0 0 1.27-2.46.83.83 0 0 0 -.25-.86.74.74 0 0 0 -.86-.05 14.16 14.16 0 0 1 -4.22 1.7 8 8 0 0 0 -5.62-2.39zm0 1.57a6.56 6.56 0 0 1 4.88 2.22.73.73 0 0 0 .71.22 14.54 14.54 0 0 0 2.83-.89 7 7 0 0 1 -1.94 1.85.82.82 0 0 0 -.38 1 .76.76 0 0 0 .88.51 15.46 15.46 0 0 0 2.19-.65 14.11 14.11 0 0 1 -2.12 2 .79.79 0 0 0 -.3.69v1a22.75 22.75 0 0 1 -5.26 14.36 19.26 19.26 0 0 1 -15.14 6.94 19.41 19.41 0 0 1 -8.42-1.92 15.2 15.2 0 0 0 8.49-3.37.81.81 0 0 0 .25-.87.76.76 0 0 0 -.7-.53 6.6 6.6 0 0 1 -5.71-3.8h.12a8.23 8.23 0 0 0 2.17-.29.8.8 0 0 0 .54-.79.77.77 0 0 0 -.59-.74 6.8 6.8 0 0 1 -5.16-5.69 7.56 7.56 0 0 0 2.38.52.75.75 0 0 0 .76-.55.79.79 0 0 0 -.31-.9 7.07 7.07 0 0 1 -3-5.82 7.21 7.21 0 0 1 .52-2.51 21.43 21.43 0 0 0 15 7.51.73.73 0 0 0 .61-.27.79.79 0 0 0 .16-.69 7.61 7.61 0 0 1 -.19-1.6 6.82 6.82 0 0 1 6.73-6.94z"/><path d="m32.83 54.83a8.38 8.38 0 0 0 -8.18 8.55 8 8 0 0 0 .09.84 20.1 20.1 0 0 1 -13.87-7.66.72.72 0 0 0 -.65-.3.76.76 0 0 0 -.6.4 8.7 8.7 0 0 0 .55 9.34 5.22 5.22 0 0 1 -.59-.25.73.73 0 0 0 -.74 0 .79.79 0 0 0 -.37.67v.1a8.63 8.63 0 0 0 3.56 7s0 0-.07 0a.75.75 0 0 0 -.7.25.83.83 0 0 0 -.15.76 8.33 8.33 0 0 0 5.66 5.59 13.61 13.61 0 0 1 -7.24 2.09 12.92 12.92 0 0 1 -1.67-.1.76.76 0 0 0 -.82.52.82.82 0 0 0 .32.94 21.11 21.11 0 0 0 11.79 3.62 20.83 20.83 0 0 0 16.27-7.46 24.33 24.33 0 0 0 5.64-15.42c0-.23 0-.44 0-.67a16.12 16.12 0 0 0 3.59-3.91.83.83 0 0 0 0-1 .73.73 0 0 0 -.89-.2c-.39.18-.85.2-1.25.35a8.76 8.76 0 0 0 1.27-2.47.82.82 0 0 0 -.25-.85.74.74 0 0 0 -.86-.06 13.65 13.65 0 0 1 -4.22 1.7 8 8 0 0 0 -5.62-2.37zm0 1.58a6.56 6.56 0 0 1 4.88 2.22.75.75 0 0 0 .71.22 15.26 15.26 0 0 0 2.83-.85 7 7 0 0 1 -1.94 1.85.81.81 0 0 0 -.38 1 .77.77 0 0 0 .88.51 15.46 15.46 0 0 0 2.19-.69 14.11 14.11 0 0 1 -2.12 2 .79.79 0 0 0 -.3.69v1a22.77 22.77 0 0 1 -5.26 14.36 19.26 19.26 0 0 1 -15.14 6.94 19.55 19.55 0 0 1 -8.42-1.92 15.27 15.27 0 0 0 8.49-3.37.81.81 0 0 0 .25-.87.77.77 0 0 0 -.7-.54 6.59 6.59 0 0 1 -5.68-3.69h.12a7.84 7.84 0 0 0 2.17-.3.78.78 0 0 0 .54-.78.76.76 0 0 0 -.59-.74 6.8 6.8 0 0 1 -5.16-5.69 7.84 7.84 0 0 0 2.38.52.76.76 0 0 0 .76-.55.8.8 0 0 0 -.31-.91 7 7 0 0 1 -3-5.81 7.21 7.21 0 0 1 .52-2.51 21.46 21.46 0 0 0 15 7.51.74.74 0 0 0 .61-.28.76.76 0 0 0 .16-.68 7.61 7.61 0 0 1 -.19-1.6 6.82 6.82 0 0 1 6.7-7.04z" fill="#05dbd5"/><path d="m32.83 55.21a8.27 8.27 0 0 0 -8.18 8.35 7.43 7.43 0 0 0 .09.81 20.16 20.16 0 0 1 -13.87-7.48.73.73 0 0 0 -.65-.29.78.78 0 0 0 -.6.39 8.34 8.34 0 0 0 .55 9.12c-.2-.09-.41-.14-.59-.24a.73.73 0 0 0 -.74 0 .77.77 0 0 0 -.37.66v.09a8.35 8.35 0 0 0 3.53 6.82s0 0-.07 0a.78.78 0 0 0 -.7.25.79.79 0 0 0 -.15.74 8.27 8.27 0 0 0 5.66 5.46 13.94 13.94 0 0 1 -7.24 2 12.92 12.92 0 0 1 -1.67-.1.77.77 0 0 0 -.5 1.42 21.44 21.44 0 0 0 11.79 3.54 21 21 0 0 0 16.3-7.25 23.4 23.4 0 0 0 5.64-15c0-.22 0-.44 0-.65a16 16 0 0 0 3.56-3.85.78.78 0 0 0 0-.93.76.76 0 0 0 -.89-.2c-.39.18-.85.2-1.25.34a8.42 8.42 0 0 0 1.27-2.41.79.79 0 0 0 -.25-.83.75.75 0 0 0 -.86-.06 13.82 13.82 0 0 1 -4.22 1.66 8.06 8.06 0 0 0 -5.59-2.36z" fill="#05e0da"/></svg>