<svg id="Layer_1" data-name="Layer 1" xmlns="http://www.w3.org/2000/svg" viewBox="0 0 50 100"><defs><style>.cls-1{fill:aqua;}</style></defs><title>Artboard 1 copysocials</title><path d="M32.84,9.1a8.36,8.36,0,0,0-8.34,8.35c0,.27.07.55.09.82a20.73,20.73,0,0,1-14.14-7.48.78.78,0,0,0-.66-.3.76.76,0,0,0-.61.39A8.19,8.19,0,0,0,9.73,20c-.2-.09-.42-.14-.6-.24a.79.79,0,0,0-.76,0,.77.77,0,0,0-.37.66v.1a8.28,8.28,0,0,0,3.63,6.8s-.05,0-.07,0a.78.78,0,0,0-.71.25.77.77,0,0,0-.16.74,8.39,8.39,0,0,0,5.77,5.46,14.41,14.41,0,0,1-7.38,2,15.9,15.9,0,0,1-1.71-.09.76.76,0,0,0-.82.5.77.77,0,0,0,.32.92,22.24,22.24,0,0,0,12,3.53,21.62,21.62,0,0,0,16.6-7.29,23.12,23.12,0,0,0,5.74-15c0-.22,0-.44,0-.65a16.24,16.24,0,0,0,3.66-3.83.78.78,0,0,0,0-.93.8.8,0,0,0-.92-.2c-.39.18-.86.2-1.27.34a8.1,8.1,0,0,0,1.3-2.4.79.79,0,0,0-.26-.84.75.75,0,0,0-.87-.05,14.89,14.89,0,0,1-4.31,1.66A8.26,8.26,0,0,0,32.84,9.1Zm0,1.54a6.81,6.81,0,0,1,5,2.17.77.77,0,0,0,.72.21,16.35,16.35,0,0,0,2.89-.86,7.05,7.05,0,0,1-2,1.8A.77.77,0,0,0,40,15.4a14.75,14.75,0,0,0,2.19-.6A14.75,14.75,0,0,1,40,16.73a.76.76,0,0,0-.31.67c0,.31,0,.62,0,.94a21.64,21.64,0,0,1-5.37,14,20,20,0,0,1-15.44,6.78,20.62,20.62,0,0,1-8.58-1.87A15.89,15.89,0,0,0,19,34a.74.74,0,0,0,.25-.84.76.76,0,0,0-.7-.53A6.74,6.74,0,0,1,12.71,29h.12A8.07,8.07,0,0,0,15,28.7a.77.77,0,0,0,0-1.49,6.75,6.75,0,0,1-5.27-5.55,8.47,8.47,0,0,0,2.43.5.78.78,0,0,0,.78-.53.79.79,0,0,0-.33-.89,6.82,6.82,0,0,1-3-5.67,6.73,6.73,0,0,1,.53-2.46A22.22,22.22,0,0,0,25.43,20a.82.82,0,0,0,.64-.27.81.81,0,0,0,.16-.67,6.78,6.78,0,0,1,6.61-8.37Z"/><path class="cls-1" d="M32.84,55.38a8.36,8.36,0,0,0-8.34,8.35c0,.28.07.55.09.82a20.73,20.73,0,0,1-14.14-7.48.77.77,0,0,0-.66-.29.73.73,0,0,0-.61.38,8.19,8.19,0,0,0,.55,9.12c-.2-.09-.42-.14-.6-.24a.76.76,0,0,0-.76,0,.74.74,0,0,0-.37.65v.1a8.27,8.27,0,0,0,3.63,6.8s-.05,0-.07,0a.77.77,0,0,0-.87,1,8.39,8.39,0,0,0,5.77,5.46,14.32,14.32,0,0,1-7.38,2A15.9,15.9,0,0,1,7.37,82a.77.77,0,0,0-.5,1.42,22.24,22.24,0,0,0,12,3.53,21.62,21.62,0,0,0,16.6-7.29,23.12,23.12,0,0,0,5.74-15c0-.22,0-.43,0-.65a16.19,16.19,0,0,0,3.66-3.82.8.8,0,0,0,0-.94A.78.78,0,0,0,43.9,59c-.39.17-.86.19-1.27.33a8.1,8.1,0,0,0,1.3-2.4.79.79,0,0,0-.26-.84.77.77,0,0,0-.87,0,14.61,14.61,0,0,1-4.31,1.66A8.26,8.26,0,0,0,32.84,55.38Z"/></svg>