<svg viewBox="0 0 50 100" xmlns="http://www.w3.org/2000/svg"><path d="m24.68 9.14a84 84 0 0 0 -15.08 1.13 5.19 5.19 0 0 0 -4.21 4 59.94 59.94 0 0 0 -.75 9.83 50.83 50.83 0 0 0 .84 9.9 5.33 5.33 0 0 0 4.21 4 85.74 85.74 0 0 0 15.08 1.12 85.66 85.66 0 0 0 15.08-1.12 5.19 5.19 0 0 0 4.21-4 69.89 69.89 0 0 0 .94-10 50.56 50.56 0 0 0 -.94-9.93 5.32 5.32 0 0 0 -4.21-4 116.5 116.5 0 0 0 -15.17-.93zm0 1.88a93.32 93.32 0 0 1 14.8 1 3.43 3.43 0 0 1 2.71 2.53 51.51 51.51 0 0 1 .94 9.45 68.2 68.2 0 0 1 -.94 9.64c-.28 1.82-2.19 2.36-2.71 2.57a85.51 85.51 0 0 1 -14.62 1.12 76.25 76.25 0 0 1 -14.6-1.12 3.43 3.43 0 0 1 -2.72-2.53 36.83 36.83 0 0 1 -1-9.55 52.52 52.52 0 0 1 .75-9.46c.28-1.78 2.25-2.34 2.71-2.53a82.82 82.82 0 0 1 14.68-1.14zm-5.06 5.62v15l13.11-7.49zm1.87 3.18 7.51 4.31-7.5 4.31z"/><path d="m24.68 55.28a85.11 85.11 0 0 0 -15.08 1.12 5.2 5.2 0 0 0 -4.21 4 60.19 60.19 0 0 0 -.75 9.84 50.83 50.83 0 0 0 .84 9.83 5.33 5.33 0 0 0 4.21 4 86.73 86.73 0 0 0 15.08 1.12 86.64 86.64 0 0 0 15.08-1.12 5.2 5.2 0 0 0 4.21-4 69.9 69.9 0 0 0 .94-9.9 50.53 50.53 0 0 0 -.94-9.92 5.32 5.32 0 0 0 -4.21-4 116.5 116.5 0 0 0 -15.17-.97zm-3.19 10.72 7.51 4.27-7.5 4.3z" fill="#ed1c24"/></svg>