<?xml version="1.0" encoding="utf-8"?>
<!-- Generator: Adobe Illustrator 22.1.0, SVG Export Plug-In . SVG Version: 6.00 Build 0)  -->
<svg version="1.1" id="Layer_1" xmlns="http://www.w3.org/2000/svg" xmlns:xlink="http://www.w3.org/1999/xlink" x="0px" y="0px"
	 viewBox="0 0 167.4 288" style="enable-background:new 0 0 167.4 288;" xml:space="preserve">
<style type="text/css">
	.st0{fill:#375A64;}
	.st1{fill:#DB973E;}
	.st2{fill:#FFB345;}
	.st3{fill:#1A2E35;}
	.st4{fill:#878787;}
	.st5{fill:#5B5B5B;}
</style>
<g>
	<g>
		<path class="st0" d="M139,11.6c-14.2,7.4-25.1,20-32.9,34C98.3,59.5,93.2,74.8,88.3,90l-4.4,78.4c16.5-28.1,29.8-61.2,33.4-93.6
			c-3.7-0.3-7.3-0.7-11-1c7.4-1.1,13.6-6.5,17.5-12.8s6-13.6,7.9-20.8c-4.5,0.7-8.9,1.3-13.4,2C128.8,35.2,136.4,24,139,11.6z"/>
	</g>
	<g>
		<g>
			<path class="st1" d="M139,11.6c-14.2,7.4-25.1,20-32.9,34C98.3,59.5,93.2,74.8,88.3,90l-4.4,78.4c16.5-28.1,29.8-61.2,33.4-93.6
				c-3.7-0.3-7.3-0.7-11-1c7.4-1.1,13.6-6.5,17.5-12.8s6-13.6,7.9-20.8c-4.5,0.7-8.9,1.3-13.4,2C128.8,35.2,136.4,24,139,11.6z"/>
		</g>
	</g>
	<g>
		<path class="st2" d="M81.4,186.7c0,0-35.9-42.9-35.5-83.9h14.5c0,0-15.7-10.3-14.5-16.1S47.6,59,47.6,59l13.2,3.3
			c0,0-9.9-5-11.2-12.8c-1.2-7.9,2.9-44.3,2.9-44.3s16.1,17,21.1,34.4s18,37.7,14.2,90.7C84.1,183.1,81.4,186.7,81.4,186.7z"/>
	</g>
	<g>
		<path class="st2" d="M99.6,190.8c0,0,38.9-25.9,47.5-58.9l-11.6-3.2c0,0,14.9-4.9,15.2-9.8s4.7-22.7,4.7-22.7L144,96
			c0,0,9.1-1.8,11.8-7.9s7.4-36.2,7.4-36.2s-16.7,10.1-24.5,23s-22.7,26.3-31.2,69.8C98.9,188.1,99.6,190.8,99.6,190.8z"/>
	</g>
	<g>
		<g>
			<path class="st3" d="M62.4,42.6c0,0,0.1,0.1,0.1,0.4c0.1,0.3,0.2,0.8,0.3,1.3c0.3,1.2,0.6,2.9,1.1,5.1c0.5,2.2,1.1,4.9,1.7,8.1
				s1.4,6.7,2.1,10.7c1.5,8,3.2,17.5,4.8,28.1c1.6,10.6,3.2,22.3,4.7,34.6c1.4,12.3,2.5,24,3.3,34.7s1.4,20.3,1.7,28.4
				c0.2,4,0.3,7.7,0.4,10.9s0.2,6,0.2,8.3c0,2.2,0,4,0.1,5.2c0,0.6,0,1,0,1.4c0,0.3,0,0.5,0,0.5s0-0.2,0-0.5s0-0.8-0.1-1.4
				c0-1.2-0.1-3-0.2-5.2c-0.1-2.3-0.2-5-0.3-8.3c-0.1-3.2-0.3-6.9-0.5-10.9c-0.4-8.1-1-17.7-1.8-28.4c-0.9-10.7-2-22.4-3.4-34.7
				s-3-23.9-4.6-34.5s-3.2-20.1-4.7-28.1c-0.7-4-1.4-7.6-2-10.7c-0.6-3.2-1.1-5.9-1.6-8.1c-0.4-2.2-0.8-3.9-1-5.1
				c-0.1-0.6-0.2-1-0.2-1.3C62.4,42.7,62.4,42.6,62.4,42.6z"/>
		</g>
	</g>
	<g>
		<path class="st2" d="M76.5,213c0,0-32.8-37.2-43-59.8l7.7-3.3c-5.6,0.9-11.3-1.5-15.6-5.1s-7.5-8.4-10.6-13.1l10-1.7
			c-9.2-2.6-17.3-8.9-22.1-17.2c12,2,22.8,8.5,31.7,16.7c7.2,6.6,13.3,14.4,19.2,22.3c2.9,3.8,5.4,7.9,7.5,12.3
			C66.8,175.5,76.5,199.3,76.5,213z"/>
	</g>
	<g>
		<g>
			<path class="st3" d="M147.6,73.6c0,0,0,0.1-0.2,0.4c-0.1,0.3-0.3,0.6-0.5,1.1c-0.5,1-1.1,2.4-2,4.1c-1.8,3.6-4.3,8.8-7.3,15.2
				c-3,6.4-6.5,14.2-10.3,22.8c-3.7,8.7-7.7,18.2-11.6,28.4c-3.9,10.1-7.4,19.9-10.5,28.8c-3,8.9-5.7,17-7.8,23.8
				c-2.1,6.8-3.8,12.3-4.9,16.2c-0.6,1.9-1,3.4-1.3,4.4c-0.1,0.5-0.3,0.9-0.4,1.1c-0.1,0.3-0.1,0.4-0.1,0.4s0-0.1,0.1-0.4
				c0.1-0.3,0.2-0.7,0.3-1.2c0.3-1.1,0.7-2.5,1.2-4.4c1-3.9,2.6-9.4,4.7-16.2c2-6.8,4.6-14.9,7.6-23.8c3.1-8.9,6.6-18.7,10.5-28.8
				s7.9-19.7,11.6-28.4c3.8-8.6,7.3-16.4,10.4-22.8c3.1-6.4,5.6-11.6,7.5-15.1c0.9-1.7,1.6-3.1,2.1-4.1c0.2-0.4,0.4-0.8,0.6-1.1
				C147.5,73.7,147.6,73.5,147.6,73.6z"/>
		</g>
	</g>
	<g>
		<g>
			<path class="st3" d="M79.2,229c0,0-0.1-0.2-0.2-0.7s-0.2-1.2-0.3-2c-0.1-0.9-0.3-1.9-0.5-3.1c-0.2-1.2-0.4-2.6-0.8-4.1
				c-0.6-3-1.4-6.6-2.5-10.6s-2.5-8.3-4.1-12.7c-1.7-4.4-3.5-8.6-5.3-12.3c-1.8-3.7-3.6-6.9-5.1-9.6c-0.8-1.4-1.5-2.5-2.2-3.6
				c-0.6-1.1-1.2-2-1.7-2.7c-0.4-0.7-0.8-1.2-1.1-1.7c-0.2-0.4-0.4-0.6-0.3-0.6c0,0,0.2,0.2,0.4,0.5c0.3,0.4,0.7,1,1.2,1.6
				c0.5,0.7,1.1,1.6,1.8,2.6s1.5,2.2,2.2,3.6c1.6,2.7,3.4,5.9,5.3,9.6c1.8,3.7,3.7,7.8,5.4,12.3c1.7,4.5,3,8.8,4.1,12.8
				c1,4,1.8,7.6,2.4,10.7c0.3,1.5,0.5,2.9,0.7,4.1c0.2,1.2,0.3,2.3,0.4,3.1s0.1,1.5,0.2,2C79.3,228.7,79.3,229,79.2,229z"/>
		</g>
	</g>
	<g>
		<rect x="50.7" y="220.2" class="st4" width="71.8" height="14.7"/>
	</g>
	<g>
		<polygon class="st4" points="57.6,234.9 65.3,284.2 108.7,284.2 116,234.9 		"/>
	</g>
	<g>
		<g>
			<path class="st5" d="M118.1,234.9c0,0.2-13.6,0.3-30.3,0.3c-16.8,0-30.4-0.1-30.4-0.3s13.6-0.3,30.4-0.3
				C104.6,234.6,118.1,234.7,118.1,234.9z"/>
		</g>
	</g>
</g>
</svg>
